<svg width="137" height="137" viewBox="0 0 137 137" fill="none" xmlns="http://www.w3.org/2000/svg">
<path d="M41.2168 103.622C38.9826 106.573 34.7422 107.182 32.1083 104.582C26.1549 98.7057 21.7049 91.4352 19.1911 83.3858C16.0085 73.1947 16.0882 62.264 19.4191 52.1204C22.7499 41.9768 29.1657 33.1268 37.7703 26.8063C46.375 20.4858 56.7387 17.0106 67.4143 16.8659C78.0898 16.7211 88.544 19.9142 97.3167 25.9991C106.09 32.084 112.743 40.7569 116.347 50.8065C119.952 60.8561 120.328 71.7806 117.423 82.0542C115.128 90.1688 110.877 97.5573 105.085 103.593C102.522 106.263 98.267 105.769 95.9537 102.88V102.88C93.6403 99.9916 94.1625 95.807 96.5986 93.021C100.274 88.8183 102.992 83.8325 104.526 78.4072C106.672 70.8204 106.394 62.7529 103.732 55.3314C101.07 47.91 96.1568 41.5053 89.6783 37.0117C83.1998 32.5181 75.4796 30.1601 67.5959 30.2669C59.7123 30.3738 52.0588 32.9402 45.7045 37.6078C39.3501 42.2753 34.6122 48.8109 32.1524 56.3017C29.6926 63.7926 29.6338 71.8646 31.9841 79.3906C33.6648 84.7722 36.5174 89.6825 40.3048 93.784C42.8156 96.503 43.451 100.672 41.2168 103.622V103.622Z" fill="url(#paint0_linear_5_56)"/>
<circle cx="67.6239" cy="67.6239" r="25.6239" fill="url(#paint1_linear_5_56)"/>
<defs>
<linearGradient id="paint0_linear_5_56" x1="114.551" y1="89.7754" x2="-13.6901" y2="26.7164" gradientUnits="userSpaceOnUse">
<stop stop-color="#605BFF"/>
<stop offset="1" stop-color="#5954FB" stop-opacity="0"/>
</linearGradient>
<linearGradient id="paint1_linear_5_56" x1="68.1263" y1="29.9417" x2="68.1263" y2="140.476" gradientUnits="userSpaceOnUse">
<stop stop-color="#6C68FF"/>
<stop offset="0.667708" stop-color="#3B36F8" stop-opacity="0.332292"/>
<stop offset="1" stop-color="#0600EF" stop-opacity="0"/>
</linearGradient>
</defs>
</svg>
