<svg width="9" height="9" viewBox="0 0 9 9" fill="none" xmlns="http://www.w3.org/2000/svg">
<path d="M5.0423 4.45703L8.63116 0.179102C8.69132 0.108008 8.64073 0 8.54777 0H7.45675C7.39249 0 7.33097 0.0287109 7.28859 0.0779296L4.32863 3.60664L1.36866 0.0779296C1.32765 0.0287109 1.26613 0 1.2005 0H0.109485C0.0165158 0 -0.0340702 0.108008 0.0260861 0.179102L3.61495 4.45703L0.0260861 8.73496C0.0126105 8.75081 0.00396544 8.77019 0.00117688 8.7908C-0.00161168 8.81142 0.0015734 8.8324 0.0103543 8.85125C0.0191352 8.87011 0.0331432 8.88605 0.0507147 8.89719C0.0682862 8.90832 0.0886833 8.91418 0.109485 8.91406H1.2005C1.26476 8.91406 1.32628 8.88535 1.36866 8.83613L4.32863 5.30742L7.28859 8.83613C7.3296 8.88535 7.39112 8.91406 7.45675 8.91406H8.54777C8.64073 8.91406 8.69132 8.80606 8.63116 8.73496L5.0423 4.45703Z" fill="#8C8C8C"/>
</svg>
