<svg width="21" height="21" viewBox="0 0 21 21" fill="none" xmlns="http://www.w3.org/2000/svg">
<path fill-rule="evenodd" clip-rule="evenodd" d="M5.7919 0.0854492H15.0466C18.4576 0.0854492 20.3569 1.89808 20.3569 5.00398V15.5233C20.3569 18.6802 18.4576 20.452 15.0466 20.452H5.7919C2.43499 20.452 0.480469 18.6802 0.480469 15.5233V5.00398C0.480469 1.89808 2.43499 0.0854492 5.7919 0.0854492ZM5.85815 5.01018V5H9.15875C9.63468 5 10.0212 5.35642 10.0212 5.79328C10.0212 6.24236 9.63468 6.59878 9.15875 6.59878H5.85815C5.38222 6.59878 4.99684 6.24236 4.99684 5.80448C4.99684 5.3666 5.38222 5.01018 5.85815 5.01018ZM5.85815 11.2016H14.5154C14.9903 11.2016 15.3768 10.8452 15.3768 10.4073C15.3768 9.96945 14.9903 9.61202 14.5154 9.61202H5.85815C5.38222 9.61202 4.99684 9.96945 4.99684 10.4073C4.99684 10.8452 5.38222 11.2016 5.85815 11.2016ZM5.85815 15.8554H14.5154C14.956 15.8147 15.2884 15.4674 15.2884 15.0611C15.2884 14.6436 14.956 14.2974 14.5154 14.2566H5.85815C5.52688 14.2261 5.20665 14.3686 5.02997 14.6334C4.85329 14.888 4.85329 15.224 5.02997 15.4888C5.20665 15.7434 5.52688 15.8961 5.85815 15.8554Z" fill="#999999"/>
</svg>
