<svg width="23" height="21" viewBox="0 0 23 21" fill="none" xmlns="http://www.w3.org/2000/svg">
<path fill-rule="evenodd" clip-rule="evenodd" d="M6.26064 0.106445H16.5732C20.3287 0.106445 22.4489 2.0708 22.4599 5.53414V15.0453C22.4599 18.5077 20.3287 20.473 16.5732 20.473H6.26064C2.50509 20.473 0.375 18.5077 0.375 15.0453V5.53414C0.375 2.0708 2.50509 0.106445 6.26064 0.106445ZM11.4709 16.2572C11.9469 16.2572 12.3433 15.9313 12.3875 15.4934V5.11663C12.4316 4.80095 12.2671 4.48425 11.969 4.31215C11.6587 4.13903 11.2832 4.13903 10.9862 4.31215C10.6869 4.48425 10.5224 4.80095 10.5544 5.11663V15.4934C10.6107 15.9313 11.0072 16.2572 11.4709 16.2572ZM16.5532 16.2572C17.017 16.2572 17.4134 15.9313 17.4697 15.4934V12.1533C17.5017 11.8264 17.3372 11.5219 17.038 11.3488C16.7409 11.1757 16.3655 11.1757 16.0563 11.3488C15.757 11.5219 15.5925 11.8264 15.6367 12.1533V15.4934C15.6808 15.9313 16.0773 16.2572 16.5532 16.2572ZM7.24281 15.4934C7.19864 15.9313 6.80221 16.2572 6.32628 16.2572C5.85145 16.2572 5.45392 15.9313 5.41086 15.4934V8.45675C5.37773 8.14005 5.54226 7.82538 5.84152 7.65227C6.13856 7.47915 6.51511 7.47915 6.81325 7.65227C7.1103 7.82538 7.27704 8.14005 7.24281 8.45675V15.4934Z" fill="#9A9AA9"/>
</svg>
