<svg width="27" height="25" viewBox="0 0 27 25" fill="none" xmlns="http://www.w3.org/2000/svg">
<path fill-rule="evenodd" clip-rule="evenodd" d="M24.225 10.7912C24.0755 10.9252 23.8726 11.0017 23.659 11.0017C22.8687 11.0017 22.228 11.5758 22.228 12.2742C22.228 12.9774 22.8612 13.5486 23.644 13.5562C24.0851 13.56 24.4599 13.8356 24.4599 14.2307V16.6848C24.4599 18.7504 22.5911 20.4256 20.2843 20.4256H16.8028C16.4429 20.4256 16.1514 20.1644 16.1514 19.842V17.7754C16.1514 17.3736 15.799 17.0579 15.3504 17.0579C14.9126 17.0579 14.5495 17.3736 14.5495 17.7754V19.842C14.5495 20.1644 14.2579 20.4256 13.8991 20.4256H6.55063C4.25457 20.4256 2.375 18.7513 2.375 16.6848V14.2307C2.375 13.8356 2.74985 13.56 3.1909 13.5562C3.97477 13.5486 4.60699 12.9774 4.60699 12.2742C4.60699 11.5949 3.98759 11.0783 3.17595 11.0783C2.96237 11.0783 2.75946 11.0017 2.60995 10.8678C2.46043 10.7338 2.375 10.552 2.375 10.3607V7.88274C2.375 5.82001 4.25884 4.13232 6.56131 4.13232H13.8991C14.2579 4.13232 14.5495 4.39351 14.5495 4.71594V7.16519C14.5495 7.55745 14.9126 7.88274 15.3504 7.88274C15.799 7.88274 16.1514 7.55745 16.1514 7.16519V4.71594C16.1514 4.39351 16.4429 4.13232 16.8028 4.13232H20.2843C22.5911 4.13232 24.4599 5.80662 24.4599 7.87318V10.2842C24.4599 10.4755 24.3745 10.6573 24.225 10.7912ZM15.3507 15.2018C15.7992 15.2018 16.1517 14.8765 16.1517 14.4842V10.6573C16.1517 10.265 15.7992 9.93973 15.3507 9.93973C14.9129 9.93973 14.5498 10.265 14.5498 10.6573V14.4842C14.5498 14.8765 14.9129 15.2018 15.3507 15.2018Z" fill="#999999"/>
</svg>
