<svg width="27" height="25" viewBox="0 0 27 25" fill="none" xmlns="http://www.w3.org/2000/svg">
<path fill-rule="evenodd" clip-rule="evenodd" d="M5.17979 2.11572H8.91214C10.4691 2.11572 11.7169 3.2868 11.7169 4.72367V8.19515C11.7169 9.64118 10.4691 10.8021 8.91214 10.8021H5.17979C3.63384 10.8021 2.375 9.64118 2.375 8.19515V4.72367C2.375 3.2868 3.63384 2.11572 5.17979 2.11572ZM5.17979 13.7957H8.91214C10.4691 13.7957 11.7169 14.9576 11.7169 16.4036V19.8751C11.7169 21.3109 10.4691 22.482 8.91214 22.482H5.17979C3.63384 22.482 2.375 21.3109 2.375 19.8751V16.4036C2.375 14.9576 3.63384 13.7957 5.17979 13.7957ZM21.6563 2.11572H17.9239C16.3669 2.11572 15.1191 3.2868 15.1191 4.72367V8.19515C15.1191 9.64118 16.3669 10.8021 17.9239 10.8021H21.6563C23.2022 10.8021 24.4611 9.64118 24.4611 8.19515V4.72367C24.4611 3.2868 23.2022 2.11572 21.6563 2.11572ZM17.9239 13.7957H21.6563C23.2022 13.7957 24.4611 14.9576 24.4611 16.4036V19.8751C24.4611 21.3109 23.2022 22.482 21.6563 22.482H17.9239C16.3669 22.482 15.1191 21.3109 15.1191 19.8751V16.4036C15.1191 14.9576 16.3669 13.7957 17.9239 13.7957Z" fill="#605BFF"/>
</svg>
