<svg width="76" height="41" viewBox="0 0 76 41" fill="none" xmlns="http://www.w3.org/2000/svg">
<path d="M7 14H69V29C69 35.6274 63.6274 41 57 41H19C12.3726 41 7 35.6274 7 29V14Z" fill="#B4AEAE"/>
<path d="M7 0H69L76 13H0L7 0Z" fill="#DCDADA"/>
<path d="M24.7188 25.5653C24.6733 25.1619 24.4858 24.8494 24.1562 24.6278C23.8267 24.4034 23.4119 24.2912 22.9119 24.2912C22.554 24.2912 22.2443 24.348 21.983 24.4616C21.7216 24.5724 21.5185 24.7259 21.3736 24.9219C21.2315 25.1151 21.1605 25.3352 21.1605 25.5824C21.1605 25.7898 21.2088 25.9687 21.3054 26.1193C21.4048 26.2699 21.5341 26.3963 21.6932 26.4986C21.8551 26.598 22.0284 26.6818 22.2131 26.75C22.3977 26.8153 22.5753 26.8693 22.7457 26.9119L23.598 27.1335C23.8764 27.2017 24.1619 27.294 24.4545 27.4105C24.7472 27.527 25.0185 27.6804 25.2685 27.8707C25.5185 28.0611 25.7202 28.2969 25.8736 28.5781C26.0298 28.8594 26.108 29.196 26.108 29.5881C26.108 30.0824 25.9801 30.5213 25.7244 30.9048C25.4716 31.2884 25.1037 31.5909 24.6207 31.8125C24.1406 32.0341 23.5597 32.1449 22.8778 32.1449C22.2244 32.1449 21.6591 32.0412 21.1818 31.8338C20.7045 31.6264 20.331 31.3324 20.0611 30.9517C19.7912 30.5682 19.642 30.1136 19.6136 29.5881H20.9347C20.9602 29.9034 21.0625 30.1662 21.2415 30.3764C21.4233 30.5838 21.6548 30.7386 21.9361 30.8409C22.2202 30.9403 22.5312 30.9901 22.8693 30.9901C23.2415 30.9901 23.5724 30.9318 23.8622 30.8153C24.1548 30.696 24.3849 30.5312 24.5526 30.321C24.7202 30.108 24.804 29.8594 24.804 29.5753C24.804 29.3168 24.7301 29.1051 24.5824 28.9403C24.4375 28.7756 24.2401 28.6392 23.9901 28.5312C23.7429 28.4233 23.4631 28.3281 23.1506 28.2457L22.1193 27.9645C21.4205 27.7741 20.8665 27.4943 20.4574 27.125C20.0511 26.7557 19.848 26.267 19.848 25.6591C19.848 25.1562 19.9844 24.7173 20.2571 24.3423C20.5298 23.9673 20.8991 23.6761 21.3651 23.4688C21.831 23.2585 22.3565 23.1534 22.9418 23.1534C23.5327 23.1534 24.054 23.2571 24.5057 23.4645C24.9602 23.6719 25.3182 23.9574 25.5795 24.321C25.8409 24.6818 25.9773 25.0966 25.9886 25.5653H24.7188ZM28.8533 28.1136V32H27.5792V23.2727H28.8363V26.5199H28.9173C29.0707 26.1676 29.305 25.8878 29.6204 25.6804C29.9357 25.473 30.3477 25.3693 30.8562 25.3693C31.305 25.3693 31.6971 25.4616 32.0323 25.6463C32.3704 25.831 32.6317 26.1065 32.8164 26.473C33.0039 26.8366 33.0977 27.2912 33.0977 27.8366V32H31.8235V27.9901C31.8235 27.5099 31.6999 27.1378 31.4528 26.8736C31.2056 26.6065 30.8619 26.473 30.4215 26.473C30.1204 26.473 29.8505 26.5369 29.6119 26.6648C29.3761 26.7926 29.19 26.9801 29.0536 27.2273C28.9201 27.4716 28.8533 27.767 28.8533 28.1136ZM37.619 32.1321C36.9741 32.1321 36.4187 31.9943 35.9528 31.7188C35.4897 31.4403 35.1317 31.0497 34.8789 30.5469C34.6289 30.0412 34.5039 29.4489 34.5039 28.7699C34.5039 28.0994 34.6289 27.5085 34.8789 26.9972C35.1317 26.4858 35.484 26.0866 35.9357 25.7997C36.3903 25.5128 36.9215 25.3693 37.5295 25.3693C37.8988 25.3693 38.2567 25.4304 38.6033 25.5526C38.9499 25.6747 39.261 25.8665 39.5366 26.1278C39.8121 26.3892 40.0295 26.7287 40.1886 27.1463C40.3477 27.5611 40.4272 28.0653 40.4272 28.6591V29.1108H35.2241V28.1562H39.1786C39.1786 27.821 39.1104 27.5241 38.9741 27.2656C38.8377 27.0043 38.646 26.7983 38.3988 26.6477C38.1545 26.4972 37.8675 26.4219 37.538 26.4219C37.18 26.4219 36.8675 26.5099 36.6005 26.6861C36.3363 26.8594 36.1317 27.0866 35.9869 27.3679C35.8448 27.6463 35.7738 27.9489 35.7738 28.2756V29.0213C35.7738 29.4588 35.8505 29.831 36.0039 30.1378C36.1602 30.4446 36.3775 30.679 36.6559 30.8409C36.9343 31 37.2596 31.0795 37.6317 31.0795C37.8732 31.0795 38.0934 31.0455 38.2923 30.9773C38.4911 30.9062 38.663 30.8011 38.8079 30.6619C38.9528 30.5227 39.0636 30.3509 39.1403 30.1463L40.3462 30.3636C40.2496 30.7187 40.0763 31.0298 39.8263 31.2969C39.5792 31.5611 39.2681 31.767 38.8931 31.9148C38.521 32.0597 38.0962 32.1321 37.619 32.1321ZM44.2912 32.1278C43.7628 32.1278 43.2912 31.9929 42.8764 31.723C42.4645 31.4503 42.1406 31.0625 41.9048 30.5597C41.6719 30.054 41.5554 29.4474 41.5554 28.7401C41.5554 28.0327 41.6733 27.4276 41.9091 26.9247C42.1477 26.4219 42.4744 26.0369 42.8892 25.7699C43.304 25.5028 43.7741 25.3693 44.2997 25.3693C44.706 25.3693 45.0327 25.4375 45.2798 25.5739C45.5298 25.7074 45.723 25.8636 45.8594 26.0426C45.9986 26.2216 46.1065 26.3793 46.1832 26.5156H46.2599V23.2727H47.5341V32H46.2898V30.9815H46.1832C46.1065 31.1207 45.9957 31.2798 45.8509 31.4588C45.7088 31.6378 45.5128 31.794 45.2628 31.9276C45.0128 32.0611 44.6889 32.1278 44.2912 32.1278ZM44.5724 31.0412C44.9389 31.0412 45.2486 30.9446 45.5014 30.7514C45.7571 30.5554 45.9503 30.2841 46.081 29.9375C46.2145 29.5909 46.2812 29.1875 46.2812 28.7273C46.2812 28.2727 46.2159 27.875 46.0852 27.5341C45.9545 27.1932 45.7628 26.9276 45.5099 26.7372C45.2571 26.5469 44.9446 26.4517 44.5724 26.4517C44.1889 26.4517 43.8693 26.5511 43.6136 26.75C43.358 26.9489 43.1648 27.2202 43.0341 27.5639C42.9063 27.9077 42.8423 28.2955 42.8423 28.7273C42.8423 29.1648 42.9077 29.5582 43.0384 29.9077C43.169 30.2571 43.3622 30.5341 43.6179 30.7386C43.8764 30.9403 44.1946 31.0412 44.5724 31.0412ZM52.3739 32.1193C51.7887 32.1193 51.266 32.0185 50.8058 31.8168C50.3484 31.6151 49.9862 31.3352 49.7191 30.9773C49.4549 30.6165 49.3129 30.1989 49.293 29.7244H50.631C50.6481 29.983 50.7347 30.2074 50.891 30.3977C51.0501 30.5852 51.2575 30.7301 51.5131 30.8324C51.7688 30.9347 52.0529 30.9858 52.3654 30.9858C52.7092 30.9858 53.0131 30.9261 53.2773 30.8068C53.5444 30.6875 53.7532 30.5213 53.9038 30.3082C54.0543 30.0923 54.1296 29.8438 54.1296 29.5625C54.1296 29.2699 54.0543 29.0128 53.9038 28.7912C53.756 28.5668 53.5387 28.3906 53.2518 28.2628C52.9677 28.1349 52.6239 28.071 52.2205 28.071H51.4833V26.9972H52.2205C52.5444 26.9972 52.8285 26.9389 53.0728 26.8224C53.32 26.706 53.5131 26.544 53.6523 26.3366C53.7915 26.1264 53.8612 25.8807 53.8612 25.5994C53.8612 25.3295 53.8001 25.0952 53.6779 24.8963C53.5586 24.6946 53.3881 24.5369 53.1665 24.4233C52.9478 24.3097 52.6893 24.2528 52.391 24.2528C52.1069 24.2528 51.8413 24.3054 51.5941 24.4105C51.3498 24.5128 51.1509 24.6605 50.9975 24.8537C50.8441 25.044 50.7617 25.2727 50.7504 25.5398H49.4762C49.4904 25.0682 49.6296 24.6534 49.8938 24.2955C50.1609 23.9375 50.5131 23.6577 50.9506 23.456C51.3881 23.2543 51.8739 23.1534 52.408 23.1534C52.9677 23.1534 53.4506 23.2628 53.8569 23.4815C54.266 23.6974 54.5813 23.9858 54.8029 24.3466C55.0273 24.7074 55.1381 25.1023 55.1353 25.5312C55.1381 26.0199 55.0018 26.4347 54.7262 26.7756C54.4535 27.1165 54.0898 27.3452 53.6353 27.4616V27.5298C54.2148 27.6179 54.6637 27.848 54.9819 28.2202C55.3029 28.5923 55.462 29.054 55.4592 29.6051C55.462 30.0852 55.3285 30.5156 55.0586 30.8963C54.7915 31.277 54.4265 31.5767 53.9634 31.7955C53.5004 32.0114 52.9705 32.1193 52.3739 32.1193Z" fill="white"/>
</svg>
