<svg width="76" height="41" viewBox="0 0 76 41" fill="none" xmlns="http://www.w3.org/2000/svg">
<path d="M7.125 14.125H68.875V29C68.875 35.5584 63.5584 40.875 57 40.875H19C12.4416 40.875 7.125 35.5584 7.125 29V14.125Z" fill="#F5970B" stroke="black" stroke-width="0.25"/>
<path d="M7 0H69L76 13H0L7 0Z" fill="#A48A8A"/>
<path d="M7 0H69L76 13H0L7 0Z" fill="#FFB74B"/>
<mask id="mask0_3_52" style="mask-type:alpha" maskUnits="userSpaceOnUse" x="7" y="14" width="62" height="27">
<path d="M7.125 14.125H68.875V29C68.875 35.5584 63.5584 40.875 57 40.875H19C12.4416 40.875 7.125 35.5584 7.125 29V14.125Z" fill="#F5970B" stroke="black" stroke-width="0.25"/>
</mask>
<g mask="url(#mask0_3_52)">
<circle cx="64" cy="35" r="6" fill="white"/>
<circle cx="64" cy="15" r="6" fill="white"/>
<circle cx="8" cy="18" r="6" fill="white"/>
<circle cx="37" cy="39" r="4" fill="white"/>
</g>
<mask id="mask1_3_52" style="mask-type:alpha" maskUnits="userSpaceOnUse" x="0" y="0" width="76" height="13">
<path d="M7 0H69L76 13H0L7 0Z" fill="#090909"/>
</mask>
<g mask="url(#mask1_3_52)">
<circle cx="8.5" cy="1.5" r="3.5" fill="white"/>
<circle cx="67.5" cy="1.5" r="3.5" fill="white"/>
<circle cx="51.5" cy="1.5" r="3.5" fill="white"/>
<circle cx="25.5" cy="-1.5" r="3.5" fill="white"/>
<circle cx="33.5" cy="13.5" r="3.5" fill="white"/>
</g>
<circle cx="16.5" cy="10.5" r="2.5" fill="white"/>
<circle cx="42.5" cy="7.5" r="2.5" fill="white"/>
<circle cx="64.5" cy="10.5" r="2.5" fill="white"/>
<path d="M7.125 14.125H68.875V29C68.875 35.5584 63.5584 40.875 57 40.875H19C12.4416 40.875 7.125 35.5584 7.125 29V14.125Z" stroke="#555555" stroke-width="0.25"/>
</svg>
