<svg width="64" height="22" viewBox="0 0 64 22" fill="none" xmlns="http://www.w3.org/2000/svg">
<path d="M1.31767 14.3995C0.942446 14.2241 0.496042 14.3861 0.320599 14.7613C0.145155 15.1365 0.307108 15.5829 0.682331 15.7583L1.31767 14.3995ZM9.61111 19.1053L9.29344 19.7847L9.88795 20.0626L10.2424 19.5103L9.61111 19.1053ZM15.3519 10.1579L16.0719 9.94791L15.6105 8.36594L14.7206 9.75288L15.3519 10.1579ZM18.2222 20L17.5022 20.21L17.94 21.7111L18.8367 20.4301L18.2222 20ZM21.6667 15.0789L21.9043 14.3676L21.3733 14.1902L21.0522 14.6489L21.6667 15.0789ZM29.7037 17.7632L29.4661 18.4745L30.0197 18.6594L30.3349 18.1682L29.7037 17.7632ZM33.1481 12.3947L33.7267 11.9175L33.0723 11.1242L32.5169 11.9897L33.1481 12.3947ZM38.3148 18.6579L37.7363 19.1352L38.5687 20.1442L39.019 18.9161L38.3148 18.6579ZM44.0556 3L44.7672 2.76324L44.0899 0.727467L43.3514 2.74183L44.0556 3ZM48.0741 15.0789L47.3624 15.3157L47.6605 16.2116L48.4657 15.7186L48.0741 15.0789ZM56.1111 10.1579L56.5471 9.54761L56.143 9.25896L55.7195 9.51827L56.1111 10.1579ZM0.682331 15.7583L9.29344 19.7847L9.92878 18.4259L1.31767 14.3995L0.682331 15.7583ZM10.2424 19.5103L15.9831 10.5629L14.7206 9.75288L8.97987 18.7003L10.2424 19.5103ZM14.6318 10.3679L17.5022 20.21L18.9422 19.79L16.0719 9.94791L14.6318 10.3679ZM18.8367 20.4301L22.2811 15.509L21.0522 14.6489L17.6078 19.5699L18.8367 20.4301ZM21.4291 15.7903L29.4661 18.4745L29.9413 17.0518L21.9043 14.3676L21.4291 15.7903ZM30.3349 18.1682L33.7794 12.7997L32.5169 11.9897L29.0725 17.3581L30.3349 18.1682ZM32.5696 12.872L37.7363 19.1352L38.8934 18.1806L33.7267 11.9175L32.5696 12.872ZM39.019 18.9161L44.7597 3.25817L43.3514 2.74183L37.6107 18.3997L39.019 18.9161ZM43.3439 3.23676L47.3624 15.3157L48.7857 14.8422L44.7672 2.76324L43.3439 3.23676ZM48.4657 15.7186L56.5028 10.7975L55.7195 9.51827L47.6824 14.4393L48.4657 15.7186ZM55.6752 10.7682L62.564 15.6892L63.436 14.4687L56.5471 9.54761L55.6752 10.7682Z" fill="white"/>
</svg>
