<svg width="76" height="51" viewBox="0 0 76 51" fill="none" xmlns="http://www.w3.org/2000/svg">
<path d="M7 24H69V39C69 45.6274 63.6274 51 57 51H19C12.3726 51 7 45.6274 7 39V24Z" fill="#B4AEAE"/>
<path d="M7 10H69L76 23H0L7 10Z" fill="#DCDADA"/>
<path d="M15.4134 41H14.2486L16.8658 33.7273H18.1335L20.7507 41H19.5859L17.5298 35.0483H17.473L15.4134 41ZM15.6087 38.152H19.3871V39.0753H15.6087V38.152ZM23.6697 41.1065C23.2294 41.1065 22.8364 40.9941 22.4908 40.7692C22.1475 40.5419 21.8776 40.2187 21.6811 39.7997C21.487 39.3783 21.3899 38.8729 21.3899 38.2834C21.3899 37.6939 21.4882 37.1896 21.6847 36.7706C21.8835 36.3516 22.1558 36.0308 22.5014 35.8082C22.8471 35.5857 23.2389 35.4744 23.6768 35.4744C24.0154 35.4744 24.2876 35.5312 24.4936 35.6449C24.7019 35.7562 24.8629 35.8864 24.9766 36.0355C25.0926 36.1847 25.1825 36.3161 25.2464 36.4297H25.3104V33.7273H26.3722V41H25.3352V40.1513H25.2464C25.1825 40.2673 25.0902 40.3999 24.9695 40.549C24.8511 40.6982 24.6877 40.8284 24.4794 40.9396C24.2711 41.0509 24.0012 41.1065 23.6697 41.1065ZM23.9041 40.201C24.2095 40.201 24.4676 40.1205 24.6783 39.9595C24.8913 39.7962 25.0523 39.5701 25.1612 39.2812C25.2725 38.9924 25.3281 38.6562 25.3281 38.2727C25.3281 37.8939 25.2737 37.5625 25.1648 37.2784C25.0559 36.9943 24.8961 36.773 24.6854 36.6143C24.4747 36.4557 24.2143 36.3764 23.9041 36.3764C23.5845 36.3764 23.3182 36.4593 23.1051 36.625C22.892 36.7907 22.7311 37.0168 22.6222 37.3033C22.5156 37.5897 22.4624 37.9129 22.4624 38.2727C22.4624 38.6373 22.5168 38.9652 22.6257 39.2564C22.7346 39.5476 22.8956 39.7784 23.1087 39.9489C23.3241 40.117 23.5893 40.201 23.9041 40.201ZM29.9295 41.1065C29.4892 41.1065 29.0962 40.9941 28.7505 40.7692C28.4073 40.5419 28.1374 40.2187 27.9409 39.7997C27.7467 39.3783 27.6497 38.8729 27.6497 38.2834C27.6497 37.6939 27.7479 37.1896 27.9444 36.7706C28.1433 36.3516 28.4155 36.0308 28.7612 35.8082C29.1068 35.5857 29.4986 35.4744 29.9366 35.4744C30.2752 35.4744 30.5474 35.5312 30.7534 35.6449C30.9617 35.7562 31.1227 35.8864 31.2363 36.0355C31.3523 36.1847 31.4423 36.3161 31.5062 36.4297H31.5701V33.7273H32.6319V41H31.595V40.1513H31.5062C31.4423 40.2673 31.35 40.3999 31.2292 40.549C31.1109 40.6982 30.9475 40.8284 30.7392 40.9396C30.5308 41.0509 30.2609 41.1065 29.9295 41.1065ZM30.1639 40.201C30.4693 40.201 30.7273 40.1205 30.938 39.9595C31.1511 39.7962 31.3121 39.5701 31.421 39.2812C31.5323 38.9924 31.5879 38.6562 31.5879 38.2727C31.5879 37.8939 31.5334 37.5625 31.4245 37.2784C31.3156 36.9943 31.1558 36.773 30.9451 36.6143C30.7344 36.4557 30.474 36.3764 30.1639 36.3764C29.8443 36.3764 29.5779 36.4593 29.3649 36.625C29.1518 36.7907 28.9908 37.0168 28.8819 37.3033C28.7754 37.5897 28.7221 37.9129 28.7221 38.2727C28.7221 38.6373 28.7766 38.9652 28.8855 39.2564C28.9944 39.5476 29.1554 39.7784 29.3684 39.9489C29.5839 40.117 29.849 40.201 30.1639 40.201ZM40.8457 35.6378C40.8078 35.3016 40.6516 35.0412 40.377 34.8565C40.1023 34.6695 39.7567 34.576 39.34 34.576C39.0417 34.576 38.7837 34.6233 38.5659 34.718C38.3481 34.8104 38.1788 34.9382 38.0581 35.1016C37.9397 35.2625 37.8805 35.446 37.8805 35.652C37.8805 35.8248 37.9208 35.974 38.0012 36.0994C38.0841 36.2249 38.1918 36.3303 38.3244 36.4155C38.4593 36.4983 38.6038 36.5682 38.7576 36.625C38.9115 36.6795 39.0595 36.7244 39.2015 36.7599L39.9118 36.9446C40.1438 37.0014 40.3817 37.0784 40.6255 37.1754C40.8694 37.2725 41.0955 37.4003 41.3038 37.5589C41.5121 37.7176 41.6802 37.9141 41.8081 38.1484C41.9383 38.3828 42.0034 38.6634 42.0034 38.9901C42.0034 39.402 41.8968 39.7678 41.6838 40.0874C41.4731 40.407 41.1665 40.6591 40.764 40.8438C40.3639 41.0284 39.8798 41.1207 39.3116 41.1207C38.7671 41.1207 38.296 41.0343 37.8983 40.8615C37.5005 40.6887 37.1892 40.4437 36.9643 40.1264C36.7394 39.8068 36.6151 39.428 36.5914 38.9901H37.6923C37.7136 39.2528 37.7988 39.4718 37.948 39.647C38.0995 39.8198 38.2924 39.9489 38.5268 40.0341C38.7636 40.117 39.0228 40.1584 39.3045 40.1584C39.6146 40.1584 39.8904 40.1098 40.1319 40.0128C40.3758 39.9134 40.5675 39.776 40.7072 39.6009C40.8469 39.4233 40.9167 39.2161 40.9167 38.9794C40.9167 38.764 40.8552 38.5876 40.7321 38.4503C40.6113 38.313 40.4468 38.1993 40.2385 38.1094C40.0325 38.0194 39.7993 37.9401 39.5389 37.8714L38.6795 37.6371C38.0971 37.4785 37.6355 37.2453 37.2946 36.9375C36.956 36.6297 36.7868 36.2225 36.7868 35.7159C36.7868 35.2969 36.9004 34.9311 37.1277 34.6186C37.3549 34.3061 37.6627 34.0634 38.051 33.8906C38.4392 33.7154 38.8772 33.6278 39.3649 33.6278C39.8573 33.6278 40.2917 33.7143 40.6681 33.8871C41.0469 34.0599 41.3452 34.2978 41.563 34.6009C41.7808 34.9015 41.8945 35.2472 41.9039 35.6378H40.8457ZM44.2912 37.7614V41H43.2294V33.7273H44.277V36.4332H44.3445C44.4723 36.1397 44.6676 35.9065 44.9304 35.7337C45.1932 35.5608 45.5365 35.4744 45.9602 35.4744C46.3343 35.4744 46.661 35.5514 46.9403 35.7053C47.2221 35.8591 47.4399 36.0888 47.5938 36.3942C47.75 36.6972 47.8281 37.076 47.8281 37.5305V41H46.7663V37.6584C46.7663 37.2583 46.6634 36.9482 46.4574 36.728C46.2514 36.5054 45.965 36.3942 45.598 36.3942C45.3471 36.3942 45.1222 36.4474 44.9233 36.554C44.7268 36.6605 44.5717 36.8168 44.4581 37.0227C44.3468 37.2263 44.2912 37.4725 44.2912 37.7614ZM51.5959 41.1101C51.0585 41.1101 50.5956 40.9953 50.2074 40.7656C49.8215 40.5336 49.5232 40.2081 49.3125 39.7891C49.1042 39.3677 49 38.8741 49 38.3082C49 37.7495 49.1042 37.2571 49.3125 36.831C49.5232 36.4048 49.8168 36.0722 50.1932 35.8331C50.572 35.594 51.0147 35.4744 51.5213 35.4744C51.8291 35.4744 52.1274 35.5253 52.4162 35.6271C52.705 35.7289 52.9643 35.8887 53.1939 36.1065C53.4235 36.3243 53.6046 36.6072 53.7372 36.9553C53.8698 37.3009 53.9361 37.7211 53.9361 38.2159V38.5923H49.6001V37.7969H52.8956C52.8956 37.5175 52.8388 37.2701 52.7251 37.0547C52.6115 36.8369 52.4517 36.6652 52.2457 36.5398C52.0421 36.4143 51.803 36.3516 51.5284 36.3516C51.2301 36.3516 50.9697 36.425 50.7472 36.5717C50.527 36.7161 50.3565 36.9055 50.2358 37.1399C50.1174 37.3719 50.0582 37.6241 50.0582 37.8963V38.5178C50.0582 38.8823 50.1222 39.1925 50.25 39.4482C50.3802 39.7038 50.5613 39.8991 50.7933 40.0341C51.0253 40.1667 51.2964 40.233 51.6065 40.233C51.8078 40.233 51.9912 40.2045 52.157 40.1477C52.3227 40.0885 52.4659 40.0009 52.5866 39.8849C52.7074 39.7689 52.7997 39.6257 52.8636 39.4553L53.8686 39.6364C53.7881 39.9323 53.6437 40.1915 53.4354 40.4141C53.2294 40.6342 52.9702 40.8059 52.6577 40.929C52.3475 41.0497 51.9936 41.1101 51.5959 41.1101ZM57.1561 41.1065C56.7157 41.1065 56.3227 40.9941 55.9771 40.7692C55.6338 40.5419 55.3639 40.2187 55.1674 39.7997C54.9733 39.3783 54.8762 38.8729 54.8762 38.2834C54.8762 37.6939 54.9745 37.1896 55.171 36.7706C55.3699 36.3516 55.6421 36.0308 55.9877 35.8082C56.3334 35.5857 56.7252 35.4744 57.1632 35.4744C57.5017 35.4744 57.774 35.5312 57.9799 35.6449C58.1883 35.7562 58.3493 35.8864 58.4629 36.0355C58.5789 36.1847 58.6689 36.3161 58.7328 36.4297H58.7967V33.7273H59.8585V41H58.8216V40.1513H58.7328C58.6689 40.2673 58.5765 40.3999 58.4558 40.549C58.3374 40.6982 58.1741 40.8284 57.9657 40.9396C57.7574 41.0509 57.4875 41.1065 57.1561 41.1065ZM57.3904 40.201C57.6958 40.201 57.9539 40.1205 58.1646 39.9595C58.3777 39.7962 58.5386 39.5701 58.6475 39.2812C58.7588 38.9924 58.8145 38.6562 58.8145 38.2727C58.8145 37.8939 58.76 37.5625 58.6511 37.2784C58.5422 36.9943 58.3824 36.773 58.1717 36.6143C57.961 36.4557 57.7006 36.3764 57.3904 36.3764C57.0708 36.3764 56.8045 36.4593 56.5914 36.625C56.3784 36.7907 56.2174 37.0168 56.1085 37.3033C56.002 37.5897 55.9487 37.9129 55.9487 38.2727C55.9487 38.6373 56.0031 38.9652 56.112 39.2564C56.2209 39.5476 56.3819 39.7784 56.595 39.9489C56.8104 40.117 57.0756 40.201 57.3904 40.201Z" fill="white"/>
<circle cx="38" cy="10" r="9.5" fill="white" stroke="#DCDADA"/>
<path d="M36.9886 14.3125V6.44886H38.7727V14.3125H36.9886ZM33.9489 11.2727V9.48864H41.8125V11.2727H33.9489Z" fill="#B4AEAE" fill-opacity="0.933333"/>
</svg>
