<svg width="27" height="25" viewBox="0 0 27 25" fill="none" xmlns="http://www.w3.org/2000/svg">
<g opacity="0.4">
<path fill-rule="evenodd" clip-rule="evenodd" d="M8.7919 2.03857H18.0466C21.4576 2.03857 23.3569 3.8512 23.3569 6.95711V17.4765C23.3569 20.6333 21.4576 22.4052 18.0466 22.4052H8.7919C5.43499 22.4052 3.48047 20.6333 3.48047 17.4765V6.95711C3.48047 3.8512 5.43499 2.03857 8.7919 2.03857ZM9.09108 6.78399V6.7738H12.3917C12.8676 6.7738 13.2541 7.13022 13.2541 7.56708C13.2541 8.01617 12.8676 8.37258 12.3917 8.37258H9.09108C8.61515 8.37258 8.22977 8.01617 8.22977 7.57828C8.22977 7.1404 8.61515 6.78399 9.09108 6.78399ZM9.09108 12.9754H17.7484C18.2232 12.9754 18.6097 12.619 18.6097 12.1811C18.6097 11.7433 18.2232 11.3858 17.7484 11.3858H9.09108C8.61515 11.3858 8.22977 11.7433 8.22977 12.1811C8.22977 12.619 8.61515 12.9754 9.09108 12.9754ZM9.09108 17.6292H17.7484C18.189 17.5885 18.5213 17.2412 18.5213 16.8349C18.5213 16.4174 18.189 16.0712 17.7484 16.0304H9.09108C8.75981 15.9999 8.43957 16.1424 8.26289 16.4072C8.08621 16.6618 8.08621 16.9978 8.26289 17.2626C8.43957 17.5172 8.75981 17.6699 9.09108 17.6292Z" fill="#030229"/>
</g>
</svg>
