<svg width="16" height="17" viewBox="0 0 16 17" fill="none" xmlns="http://www.w3.org/2000/svg">
<path d="M11.5 13.0549V13.055C11.5 13.0849 11.4919 13.1142 11.4765 13.14C11.461 13.1657 11.4389 13.1868 11.4122 13.2011C11.3856 13.2153 11.3555 13.2221 11.3252 13.2206C11.2949 13.2191 11.2657 13.2095 11.2406 13.1927L11.2404 13.1926L8.64724 11.4664C8.64718 11.4664 8.64712 11.4663 8.64707 11.4663C8.4554 11.3386 8.23025 11.2706 8 11.2706C7.76975 11.2706 7.5446 11.3386 7.35293 11.4663C7.35288 11.4663 7.35282 11.4664 7.35276 11.4664L4.7596 13.1926L4.75943 13.1927C4.73431 13.2095 4.70505 13.2191 4.67479 13.2206C4.64451 13.2221 4.61444 13.2153 4.58779 13.2011C4.56115 13.1868 4.53896 13.1657 4.52353 13.14C4.50811 13.1142 4.5 13.0849 4.5 13.055V13.0549V4.31274C4.5 4.26899 4.5174 4.2269 4.54858 4.19576C4.57978 4.1646 4.62225 4.14697 4.66667 4.14697H11.3333C11.3778 4.14697 11.4202 4.1646 11.4514 4.19576C11.4826 4.2269 11.5 4.26899 11.5 4.31274V13.0549Z" stroke="white"/>
</svg>
