<svg width="16" height="17" viewBox="0 0 16 17" fill="none" xmlns="http://www.w3.org/2000/svg">
<g clip-path="url(#clip0_1097_12220)">
<path d="M11.3891 10.6361C10.9527 10.6365 10.5338 10.8078 10.2226 11.1132L5.83426 9.16056V8.97195V8.78889L10.2226 6.83069C10.4974 7.09975 10.8571 7.26549 11.2404 7.29978C11.6238 7.33407 12.0072 7.23478 12.3255 7.01878C12.6439 6.80279 12.8776 6.4834 12.9869 6.11486C13.0962 5.74633 13.0744 5.35137 12.9252 4.99706C12.776 4.64276 12.5086 4.35095 12.1683 4.17121C11.8281 3.99147 11.4361 3.93487 11.0589 4.01102C10.6816 4.08718 10.3424 4.2914 10.0988 4.58899C9.85523 4.88659 9.72231 5.25921 9.72262 5.64357V5.83218L5.33432 7.78483C5.10011 7.55504 4.80314 7.39946 4.4807 7.33762C4.15825 7.27579 3.8247 7.31046 3.52192 7.43727C3.21914 7.56409 2.96061 7.77741 2.7788 8.05044C2.59699 8.32348 2.5 8.64406 2.5 8.97195C2.5 9.29985 2.59699 9.62043 2.7788 9.89347C2.96061 10.1665 3.21914 10.3798 3.52192 10.5066C3.8247 10.6335 4.15825 10.6681 4.4807 10.6063C4.80314 10.5445 5.10011 10.3889 5.33432 10.1591L9.72262 12.1173V12.3003C9.72262 12.6295 9.82035 12.9512 10.0035 13.2249C10.1866 13.4986 10.4468 13.7119 10.7513 13.8379C11.0558 13.9638 11.3909 13.9968 11.7142 13.9326C12.0374 13.8683 12.3344 13.7098 12.5674 13.4771C12.8005 13.2444 12.9592 12.9478 13.0235 12.625C13.0878 12.3022 13.0548 11.9676 12.9286 11.6635C12.8025 11.3594 12.5889 11.0995 12.3149 10.9166C12.0408 10.7337 11.7187 10.6361 11.3891 10.6361Z" fill="white"/>
</g>
<defs>
<clipPath id="clip0_1097_12220">
<rect width="16" height="15.9784" fill="white" transform="translate(0 0.983887)"/>
</clipPath>
</defs>
</svg>
