<svg width="12" height="12" viewBox="0 0 12 12" fill="none" xmlns="http://www.w3.org/2000/svg">
<path d="M8.89821 6.09262C8.89821 7.61967 7.61501 8.88496 5.99793 8.88496C4.38086 8.88496 3.09766 7.61967 3.09766 6.09262C3.09766 4.56558 4.38086 3.30029 5.99793 3.30029C7.61501 3.30029 8.89821 4.56558 8.89821 6.09262Z" stroke="white"/>
<mask id="path-2-inside-1_1097_12141" fill="white">
<path d="M6.0047 11.904C5.89425 11.904 5.80469 11.8172 5.80469 11.7103V10.161C5.80469 10.054 5.89425 9.96729 6.0047 9.96729C6.11516 9.96729 6.20472 10.054 6.20472 10.161V11.7103C6.20472 11.8172 6.11516 11.904 6.0047 11.904Z"/>
</mask>
<path d="M6.0047 10.904C6.41588 10.904 6.80469 11.2348 6.80469 11.7103H4.80469C4.80469 12.3997 5.37262 12.904 6.0047 12.904V10.904ZM6.80469 11.7103V10.161H4.80469V11.7103H6.80469ZM6.80469 10.161C6.80469 10.6364 6.41588 10.9673 6.0047 10.9673V8.96729C5.37262 8.96729 4.80469 9.47155 4.80469 10.161H6.80469ZM6.0047 10.9673C5.59353 10.9673 5.20472 10.6364 5.20472 10.161H7.20472C7.20472 9.47155 6.63679 8.96729 6.0047 8.96729V10.9673ZM5.20472 10.161V11.7103H7.20472V10.161H5.20472ZM5.20472 11.7103C5.20472 11.2348 5.59353 10.904 6.0047 10.904V12.904C6.63679 12.904 7.20472 12.3997 7.20472 11.7103H5.20472Z" fill="white" mask="url(#path-2-inside-1_1097_12141)"/>
<mask id="path-4-inside-2_1097_12141" fill="white">
<path d="M6.0047 2.22231C5.89425 2.22231 5.80469 2.1356 5.80469 2.02864V0.479311C5.80469 0.372359 5.89425 0.285645 6.0047 0.285645C6.11516 0.285645 6.20472 0.372359 6.20472 0.479311V2.02864C6.20472 2.1356 6.11516 2.22231 6.0047 2.22231Z"/>
</mask>
<path d="M6.0047 1.22231C6.41588 1.22231 6.80469 1.55315 6.80469 2.02864H4.80469C4.80469 2.71804 5.37262 3.22231 6.0047 3.22231V1.22231ZM6.80469 2.02864V0.479311H4.80469V2.02864H6.80469ZM6.80469 0.479311C6.80469 0.954808 6.41588 1.28564 6.0047 1.28564V-0.714355C5.37262 -0.714355 4.80469 -0.210089 4.80469 0.479311H6.80469ZM6.0047 1.28564C5.59353 1.28564 5.20472 0.954808 5.20472 0.479311H7.20472C7.20472 -0.210089 6.63679 -0.714355 6.0047 -0.714355V1.28564ZM5.20472 0.479311V2.02864H7.20472V0.479311H5.20472ZM5.20472 2.02864C5.20472 1.55315 5.59353 1.22231 6.0047 1.22231V3.22231C6.63679 3.22231 7.20472 2.71804 7.20472 2.02864H5.20472Z" fill="white" mask="url(#path-4-inside-2_1097_12141)"/>
<mask id="path-6-inside-3_1097_12141" fill="white">
<path d="M3.00088 3.19081L1.80078 2.02881L3.00088 3.19081Z"/>
</mask>
<path d="M3.69649 2.47239L2.49639 1.31039L1.10517 2.74723L2.30527 3.90923L3.69649 2.47239Z" fill="white" mask="url(#path-6-inside-3_1097_12141)"/>
<mask id="path-8-inside-4_1097_12141" fill="white">
<path d="M2.99922 3.38484C2.94619 3.38484 2.8953 3.36442 2.8578 3.3281L1.6577 2.16611C1.58192 2.09008 1.58299 1.96932 1.66014 1.89461C1.7373 1.81991 1.86202 1.81887 1.94054 1.89225L3.14064 3.05425C3.19777 3.10966 3.21496 3.19297 3.184 3.26531C3.15304 3.33766 3.08008 3.38484 2.99922 3.38484Z"/>
</mask>
<path d="M2.8578 3.3281L3.55341 2.60969L2.8578 3.3281ZM1.6577 2.16611L0.94947 2.87208L0.955726 2.87836L0.962091 2.88452L1.6577 2.16611ZM1.66014 1.89461L0.964533 1.17619L0.964533 1.17619L1.66014 1.89461ZM1.94054 1.89225L2.63615 1.17383L2.62979 1.16767L2.62332 1.16163L1.94054 1.89225ZM3.14064 3.05425L3.83686 2.33642L3.83625 2.33583L3.14064 3.05425ZM2.99922 2.38484C3.20143 2.38484 3.40126 2.46237 3.55341 2.60969L2.16219 4.04652C2.38934 4.26647 2.69094 4.38484 2.99922 4.38484V2.38484ZM3.55341 2.60969L2.35331 1.44769L0.962091 2.88452L2.16219 4.04652L3.55341 2.60969ZM2.36593 1.46013C2.6842 1.77941 2.67932 2.29974 2.35576 2.61303L0.964533 1.17619C0.486663 1.63889 0.47963 2.40074 0.94947 2.87208L2.36593 1.46013ZM2.35576 2.61303C2.04949 2.90957 1.56796 2.91276 1.25775 2.62287L2.62332 1.16163C2.15608 0.724971 1.42511 0.730243 0.964533 1.17619L2.35576 2.61303ZM1.24493 2.61067L2.44502 3.77267L3.83625 2.33583L2.63615 1.17383L1.24493 2.61067ZM2.44441 3.77207C2.20966 3.54438 2.12961 3.1874 2.26465 2.87187L4.10335 3.65876C4.3003 3.19854 4.18588 2.67494 3.83686 2.33642L2.44441 3.77207ZM2.26465 2.87187C2.39681 2.56307 2.69443 2.38484 2.99922 2.38484V4.38484C3.46574 4.38484 3.90927 4.11224 4.10335 3.65876L2.26465 2.87187Z" fill="white" mask="url(#path-8-inside-4_1097_12141)"/>
<mask id="path-10-inside-5_1097_12141" fill="white">
<path d="M10.2001 10.1625L9 9.00049L10.2001 10.1625Z"/>
</mask>
<path d="M10.8957 9.44407L9.69561 8.28207L8.30439 9.71891L9.50449 10.8809L10.8957 9.44407Z" fill="white" mask="url(#path-10-inside-5_1097_12141)"/>
<mask id="path-12-inside-6_1097_12141" fill="white">
<path d="M10.2023 10.357C10.1493 10.357 10.0984 10.3366 10.0609 10.3003L8.86083 9.13827C8.78504 9.06224 8.78611 8.94149 8.86327 8.86678C8.94042 8.79208 9.06514 8.79103 9.14366 8.86442L10.3438 10.0264C10.4009 10.0818 10.4181 10.1651 10.3871 10.2375C10.3562 10.3098 10.2832 10.357 10.2023 10.357Z"/>
</mask>
<path d="M10.0609 10.3003L10.7565 9.58185L10.0609 10.3003ZM8.86083 9.13827L8.1526 9.84425L8.15885 9.85053L8.16522 9.85669L8.86083 9.13827ZM8.86327 8.86678L8.16766 8.14836L8.16766 8.14836L8.86327 8.86678ZM9.14366 8.86442L9.83927 8.146L9.83292 8.13984L9.82645 8.1338L9.14366 8.86442ZM10.3438 10.0264L11.04 9.30859L11.0394 9.308L10.3438 10.0264ZM10.2023 9.35701C10.4046 9.35701 10.6044 9.43454 10.7565 9.58185L9.36531 11.0187C9.59247 11.2386 9.89406 11.357 10.2023 11.357V9.35701ZM10.7565 9.58185L9.55644 8.41985L8.16522 9.85669L9.36531 11.0187L10.7565 9.58185ZM9.56906 8.43229C9.88733 8.75157 9.88244 9.27191 9.55888 9.5852L8.16766 8.14836C7.68979 8.61106 7.68275 9.37291 8.1526 9.84425L9.56906 8.43229ZM9.55888 9.5852C9.25262 9.88174 8.77108 9.88493 8.46088 9.59503L9.82645 8.1338C9.3592 7.69714 8.62823 7.70241 8.16766 8.14836L9.55888 9.5852ZM8.44805 9.58283L9.64815 10.7448L11.0394 9.308L9.83927 8.146L8.44805 9.58283ZM9.64754 10.7442C9.41278 10.5165 9.33274 10.1596 9.46778 9.84403L11.3065 10.6309C11.5034 10.1707 11.389 9.64711 11.04 9.30859L9.64754 10.7442ZM9.46778 9.84403C9.59993 9.53524 9.89755 9.35701 10.2023 9.35701V11.357C10.6689 11.357 11.1124 11.0844 11.3065 10.6309L9.46778 9.84403Z" fill="white" mask="url(#path-12-inside-6_1097_12141)"/>
<mask id="path-14-inside-7_1097_12141" fill="white">
<path d="M9 3.19081L10.2001 2.02881L9 3.19081Z"/>
</mask>
<path d="M9.69561 3.90923L10.8957 2.74723L9.50449 1.31039L8.30439 2.47239L9.69561 3.90923Z" fill="white" mask="url(#path-14-inside-7_1097_12141)"/>
<mask id="path-16-inside-8_1097_12141" fill="white">
<path d="M9.00468 3.38484C8.92382 3.38484 8.85086 3.33766 8.8199 3.26531C8.78894 3.19297 8.80613 3.10966 8.86327 3.05425L10.0634 1.89225C10.1419 1.81887 10.2666 1.81991 10.3438 1.89461C10.4209 1.96932 10.422 2.09008 10.3462 2.16611L9.1461 3.3281C9.1086 3.36442 9.05771 3.38484 9.00468 3.38484Z"/>
</mask>
<path d="M8.86327 3.05425L8.16765 2.33583L8.16704 2.33642L8.86327 3.05425ZM10.0634 1.89225L9.38058 1.16163L9.37411 1.16767L9.36775 1.17383L10.0634 1.89225ZM10.3438 1.89461L11.0394 1.17619L11.0394 1.17619L10.3438 1.89461ZM10.3462 2.16611L11.0418 2.88452L11.0482 2.87836L11.0544 2.87208L10.3462 2.16611ZM9.00468 2.38484C9.30947 2.38484 9.60709 2.56307 9.73925 2.87187L7.90056 3.65876C8.09463 4.11224 8.53816 4.38484 9.00468 4.38484V2.38484ZM9.73925 2.87187C9.87429 3.1874 9.79425 3.54438 9.55949 3.77207L8.16704 2.33642C7.81802 2.67494 7.7036 3.19854 7.90056 3.65876L9.73925 2.87187ZM9.55888 3.77267L10.759 2.61067L9.36775 1.17383L8.16765 2.33583L9.55888 3.77267ZM10.7461 2.62287C10.4359 2.91276 9.95441 2.90957 9.64815 2.61303L11.0394 1.17619C10.5788 0.730243 9.84783 0.724971 9.38058 1.16163L10.7461 2.62287ZM9.64815 2.61303C9.32459 2.29974 9.3197 1.77941 9.63797 1.46013L11.0544 2.87208C11.5243 2.40074 11.5172 1.63889 11.0394 1.17619L9.64815 2.61303ZM9.65059 1.44769L8.45049 2.60969L9.84171 4.04652L11.0418 2.88452L9.65059 1.44769ZM8.45049 2.60969C8.60264 2.46237 8.80247 2.38484 9.00468 2.38484V4.38484C9.31296 4.38484 9.61456 4.26647 9.84171 4.04652L8.45049 2.60969Z" fill="white" mask="url(#path-16-inside-8_1097_12141)"/>
<mask id="path-18-inside-9_1097_12141" fill="white">
<path d="M11.8001 6.29121H10.2C10.0896 6.29121 10 6.2047 10 6.098C10 5.9913 10.0896 5.90479 10.2 5.90479H11.8001C11.9106 5.90479 12.0002 5.9913 12.0002 6.098C12.0002 6.2047 11.9106 6.29121 11.8001 6.29121Z"/>
</mask>
<path d="M11.8001 5.29121H10.2V7.29121H11.8001V5.29121ZM10.2 5.29121C10.6089 5.29121 11 5.62008 11 6.098H9C9 6.78932 9.57017 7.29121 10.2 7.29121V5.29121ZM11 6.098C11 6.57592 10.6089 6.90479 10.2 6.90479V4.90479C9.57017 4.90479 9 5.40668 9 6.098H11ZM10.2 6.90479H11.8001V4.90479H10.2V6.90479ZM11.8001 6.90479C11.3912 6.90479 11.0002 6.57592 11.0002 6.098H13.0002C13.0002 5.40668 12.43 4.90479 11.8001 4.90479V6.90479ZM11.0002 6.098C11.0002 5.62008 11.3912 5.29121 11.8001 5.29121V7.29121C12.43 7.29121 13.0002 6.78932 13.0002 6.098H11.0002Z" fill="white" mask="url(#path-18-inside-9_1097_12141)"/>
<mask id="path-20-inside-10_1097_12141" fill="white">
<path d="M1.80015 6.29121H0.200016C0.0895581 6.29121 0 6.2047 0 6.098C0 5.9913 0.0895581 5.90479 0.200016 5.90479H1.80015C1.9106 5.90479 2.00016 5.9913 2.00016 6.098C2.00016 6.2047 1.9106 6.29121 1.80015 6.29121Z"/>
</mask>
<path d="M1.80015 5.29121H0.200016V7.29121H1.80015V5.29121ZM0.200016 5.29121C0.608942 5.29121 1 5.62008 1 6.098H-1C-1 6.78932 -0.429826 7.29121 0.200016 7.29121V5.29121ZM1 6.098C1 6.57592 0.608942 6.90479 0.200016 6.90479V4.90479C-0.429826 4.90479 -1 5.40668 -1 6.098H1ZM0.200016 6.90479H1.80015V4.90479H0.200016V6.90479ZM1.80015 6.90479C1.39122 6.90479 1.00016 6.57592 1.00016 6.098H3.00016C3.00016 5.40668 2.42999 4.90479 1.80015 4.90479V6.90479ZM1.00016 6.098C1.00016 5.62008 1.39122 5.29121 1.80015 5.29121V7.29121C2.42999 7.29121 3.00016 6.78932 3.00016 6.098H1.00016Z" fill="white" mask="url(#path-20-inside-10_1097_12141)"/>
<mask id="path-22-inside-11_1097_12141" fill="white">
<path d="M1.80078 10.1625L3.00088 9.00049L1.80078 10.1625Z"/>
</mask>
<path d="M2.49639 10.8809L3.69649 9.71891L2.30527 8.28207L1.10517 9.44407L2.49639 10.8809Z" fill="white" mask="url(#path-22-inside-11_1097_12141)"/>
<mask id="path-24-inside-12_1097_12141" fill="white">
<path d="M1.79765 10.357C1.71679 10.357 1.64383 10.3098 1.61287 10.2375C1.58191 10.1651 1.5991 10.0818 1.65623 10.0264L2.85633 8.86442C2.93485 8.79103 3.05957 8.79208 3.13673 8.86678C3.21388 8.94149 3.21495 9.06224 3.13917 9.13827L1.93907 10.3003C1.90157 10.3366 1.85068 10.357 1.79765 10.357Z"/>
</mask>
<path d="M1.65623 10.0264L0.960622 9.308L0.96001 9.30859L1.65623 10.0264ZM2.85633 8.86442L2.17354 8.1338L2.16708 8.13984L2.16072 8.146L2.85633 8.86442ZM3.13673 8.86678L3.83234 8.14836L3.83234 8.14836L3.13673 8.86678ZM3.13917 9.13827L3.83478 9.85669L3.84114 9.85053L3.8474 9.84425L3.13917 9.13827ZM1.79765 9.35701C2.10244 9.35701 2.40006 9.53524 2.53222 9.84403L0.693524 10.6309C0.887598 11.0844 1.33113 11.357 1.79765 11.357V9.35701ZM2.53222 9.84403C2.66726 10.1596 2.58721 10.5165 2.35246 10.7442L0.96001 9.30859C0.610986 9.64711 0.496567 10.1707 0.693524 10.6309L2.53222 9.84403ZM2.35185 10.7448L3.55194 9.58283L2.16072 8.146L0.960623 9.308L2.35185 10.7448ZM3.53912 9.59503C3.22891 9.88493 2.74738 9.88174 2.44111 9.5852L3.83234 8.14836C3.37176 7.70241 2.64079 7.69714 2.17354 8.1338L3.53912 9.59503ZM2.44111 9.5852C2.11755 9.27191 2.11267 8.75157 2.43093 8.43229L3.8474 9.84425C4.31724 9.37291 4.31021 8.61106 3.83234 8.14836L2.44111 9.5852ZM2.44356 8.41985L1.24346 9.58185L2.63468 11.0187L3.83478 9.85669L2.44356 8.41985ZM1.24346 9.58185C1.39561 9.43454 1.59544 9.35701 1.79765 9.35701V11.357C2.10593 11.357 2.40753 11.2386 2.63468 11.0187L1.24346 9.58185Z" fill="white" mask="url(#path-24-inside-12_1097_12141)"/>
</svg>
